<svg width="23" height="23" viewBox="0 0 23 23" fill="none" xmlns="http://www.w3.org/2000/svg">
<path fill-rule="evenodd" clip-rule="evenodd" d="M14.375 1.19792H10.4876C8.72642 1.1979 7.33143 1.19789 6.23969 1.34468C5.11612 1.49573 4.20671 1.81401 3.48952 2.53119C2.77234 3.24838 2.45406 4.15779 2.30301 5.28136C2.15622 6.3731 2.15623 7.76808 2.15625 9.52925V15.3333C2.15625 17.1275 3.47113 18.6147 5.18986 18.8837C5.32209 19.6158 5.57513 20.2408 6.08384 20.7495C6.66068 21.3264 7.38697 21.5745 8.24957 21.6904C9.08042 21.8021 10.1368 21.8021 11.4474 21.8021H14.4276C15.7382 21.8021 16.7946 21.8021 17.6255 21.6904C18.4881 21.5745 19.2143 21.3264 19.7912 20.7495C20.368 20.1726 20.6161 19.4464 20.7321 18.5838C20.8437 17.7529 20.8438 16.6966 20.8438 15.3859V10.4891C20.8438 9.17847 20.8437 8.12209 20.7321 7.29124C20.6161 6.42863 20.368 5.70234 19.7912 5.1255C19.2824 4.6168 18.6575 4.36375 17.9253 4.23153C17.6563 2.5128 16.1692 1.19792 14.375 1.19792ZM16.4156 4.0932C16.1254 3.24514 15.3214 2.63542 14.375 2.63542H10.5417C8.7143 2.63542 7.41607 2.63694 6.43123 2.76935C5.46706 2.89898 4.91156 3.14208 4.50599 3.54765C4.10041 3.95323 3.85731 4.50873 3.72769 5.4729C3.59527 6.45774 3.59375 7.75596 3.59375 9.58333V15.3333C3.59375 16.2798 4.20348 17.0837 5.05154 17.3739C5.03123 16.7894 5.03124 16.1285 5.03125 15.3859V10.4891C5.03123 9.17847 5.03121 8.12209 5.14292 7.29124C5.25889 6.42863 5.507 5.70234 6.08384 5.1255C6.66068 4.54866 7.38697 4.30056 8.24957 4.18458C9.08042 4.07288 10.1368 4.0729 11.4474 4.07292H14.4276C15.1701 4.07291 15.8311 4.0729 16.4156 4.0932ZM7.1003 6.14197C7.36553 5.87674 7.73792 5.70381 8.44111 5.60927C9.16499 5.51194 10.1244 5.51042 11.5 5.51042H14.375C15.7506 5.51042 16.71 5.51194 17.4339 5.60927C18.1371 5.70381 18.5094 5.87674 18.7747 6.14197C19.04 6.4072 19.2129 6.77958 19.3074 7.48278C19.4047 8.20666 19.4062 9.16605 19.4062 10.5417V15.3333C19.4062 16.7089 19.4047 17.6683 19.3074 18.3922C19.2129 19.0955 19.04 19.4678 18.7747 19.733C18.5094 19.9983 18.1371 20.1712 17.4339 20.2658C16.71 20.363 15.7506 20.3646 14.375 20.3646H11.5C10.1244 20.3646 9.16499 20.363 8.44111 20.2658C7.73792 20.1712 7.36553 19.9983 7.1003 19.733C6.83507 19.4678 6.66214 19.0955 6.5676 18.3922C6.47027 17.6683 6.46875 16.7089 6.46875 15.3333V10.5417C6.46875 9.16605 6.47027 8.20666 6.5676 7.48278C6.66214 6.77958 6.83507 6.4072 7.1003 6.14197Z" fill="#A76AE4"/>
</svg>
